<?xml version="1.0" encoding="UTF-8"?>
<!DOCTYPE svg PUBLIC "-//W3C//DTD SVG 1.1//EN" "http://www.w3.org/Graphics/SVG/1.1/DTD/svg11.dtd">
<svg xmlns="http://www.w3.org/2000/svg" xmlns:xlink="http://www.w3.org/1999/xlink" version="1.1" width="853px" height="838px" viewBox="20 20 800 800" style="background-color: rgb(255, 255, 255);"><defs><clipPath id="mx-clip-509-652-152-26-0"><rect x="509" y="652" width="152" height="26"/></clipPath><clipPath id="mx-clip-405-766-152-26-0"><rect x="405" y="766" width="152" height="26"/></clipPath><clipPath id="mx-clip-615-766-152-26-0"><rect x="615" y="766" width="152" height="26"/></clipPath><clipPath id="mx-clip-163-552-168-26-0"><rect x="163" y="552" width="168" height="26"/></clipPath><clipPath id="mx-clip-163-578-168-26-0"><rect x="163" y="578" width="168" height="26"/></clipPath><clipPath id="mx-clip-163-604-168-26-0"><rect x="163" y="604" width="168" height="26"/></clipPath><clipPath id="mx-clip-163-630-168-36-0"><rect x="163" y="630" width="168" height="36"/></clipPath><clipPath id="mx-clip-163-674-168-26-0"><rect x="163" y="674" width="168" height="26"/></clipPath><clipPath id="mx-clip-167-442-160-26-0"><rect x="167" y="442" width="160" height="26"/></clipPath><clipPath id="mx-clip-161-89-160-26-0"><rect x="161" y="89" width="160" height="26"/></clipPath><clipPath id="mx-clip-50-279-176-26-0"><rect x="50" y="279" width="176" height="26"/></clipPath><clipPath id="mx-clip-260-279-170-26-0"><rect x="260" y="279" width="170" height="26"/></clipPath><clipPath id="mx-clip-501-184-211-26-0"><rect x="501" y="184" width="211" height="26"/></clipPath></defs><g><rect x="0" y="0" width="852" height="837" fill="rgb(255, 255, 255)" stroke="none" pointer-events="all"/><path d="M 505 639 L 505 613 L 665 613 L 665 639" fill="#dae8fc" stroke="#6c8ebf" stroke-miterlimit="10" pointer-events="all"/><path d="M 505 639 L 505 673 L 665 673 L 665 639" fill="none" stroke="#6c8ebf" stroke-miterlimit="10" pointer-events="none"/><path d="M 505 639 L 665 639" fill="none" stroke="#6c8ebf" stroke-miterlimit="10" pointer-events="none"/><g fill="rgb(0, 0, 0)" font-family="Helvetica" font-weight="bold" pointer-events="none" text-anchor="middle" font-size="12px"><text x="584.5" y="630.5">IngestorCustomMapper</text></g><path d="M 505 643 L 665 643" fill="none" stroke="rgb(0, 0, 0)" stroke-miterlimit="10" pointer-events="none"/><g fill="rgb(0, 0, 0)" font-family="Helvetica" pointer-events="none" clip-path="url(#mx-clip-509-652-152-26-0)" font-size="12px"><text x="510.5" y="664.5">+ map(): List&lt;Object&gt;</text></g><path d="M 481 727 L 481 700 L 585 700 L 585 681.12" fill="none" stroke="rgb(0, 0, 0)" stroke-miterlimit="10" pointer-events="none"/><path d="M 585 674.12 L 588.5 681.12 L 581.5 681.12 Z" fill="none" stroke="rgb(0, 0, 0)" stroke-miterlimit="10" pointer-events="none"/><path d="M 401 753 L 401 727 L 561 727 L 561 753" fill="#d5e8d4" stroke="#82b366" stroke-miterlimit="10" pointer-events="none"/><path d="M 401 753 L 401 787 L 561 787 L 561 753" fill="none" stroke="#82b366" stroke-miterlimit="10" pointer-events="none"/><path d="M 401 753 L 561 753" fill="none" stroke="#82b366" stroke-miterlimit="10" pointer-events="none"/><g fill="rgb(0, 0, 0)" font-family="Helvetica" font-weight="bold" pointer-events="none" text-anchor="middle" font-size="12px"><text x="480.5" y="744.5">LocationMapper</text></g><path d="M 401 757 L 561 757" fill="none" stroke="rgb(0, 0, 0)" stroke-miterlimit="10" pointer-events="none"/><g fill="rgb(0, 0, 0)" font-family="Helvetica" pointer-events="none" clip-path="url(#mx-clip-405-766-152-26-0)" font-size="12px"><text x="406.5" y="778.5">+ map(): List&lt;Object&gt;</text></g><path d="M 691 727 L 691 700 L 585 700 L 585 681.12" fill="none" stroke="rgb(0, 0, 0)" stroke-miterlimit="10" pointer-events="none"/><path d="M 585 674.12 L 588.5 681.12 L 581.5 681.12 Z" fill="none" stroke="rgb(0, 0, 0)" stroke-miterlimit="10" pointer-events="none"/><path d="M 611 753 L 611 727 L 771 727 L 771 753" fill="#d5e8d4" stroke="#82b366" stroke-miterlimit="10" pointer-events="none"/><path d="M 611 753 L 611 787 L 771 787 L 771 753" fill="none" stroke="#82b366" stroke-miterlimit="10" pointer-events="none"/><path d="M 611 753 L 771 753" fill="none" stroke="#82b366" stroke-miterlimit="10" pointer-events="none"/><g fill="rgb(0, 0, 0)" font-family="Helvetica" font-weight="bold" pointer-events="none" text-anchor="middle" font-size="12px"><text x="690.5" y="744.5">PotentialActionMapper</text></g><path d="M 611 757 L 771 757" fill="none" stroke="rgb(0, 0, 0)" stroke-miterlimit="10" pointer-events="none"/><g fill="rgb(0, 0, 0)" font-family="Helvetica" pointer-events="none" clip-path="url(#mx-clip-615-766-152-26-0)" font-size="12px"><text x="616.5" y="778.5">+ map(): List&lt;Object&gt;</text></g><path d="M 247 750 L 247 703.12" fill="none" stroke="rgb(0, 0, 0)" stroke-miterlimit="10" pointer-events="none"/><path d="M 247 696.12 L 250.5 703.12 L 243.5 703.12 Z" fill="none" stroke="rgb(0, 0, 0)" stroke-miterlimit="10" pointer-events="none"/><path d="M 167 776 L 167 750 L 327 750 L 327 776" fill="#d5e8d4" stroke="#82b366" stroke-miterlimit="10" pointer-events="none"/><path d="M 167 776 L 167 784 L 327 784 L 327 776" fill="none" stroke="#82b366" stroke-miterlimit="10" pointer-events="none"/><path d="M 167 776 L 327 776" fill="none" stroke="#82b366" stroke-miterlimit="10" pointer-events="none"/><g fill="rgb(0, 0, 0)" font-family="Helvetica" font-weight="bold" pointer-events="none" text-anchor="middle" font-size="12px"><text x="246.5" y="767.5">StandardIngestor</text></g><path d="M 167 780 L 327 780" fill="none" stroke="rgb(0, 0, 0)" stroke-miterlimit="10" pointer-events="none"/><path d="M 247 521 L 247 471.12" fill="none" stroke="rgb(0, 0, 0)" stroke-miterlimit="10" pointer-events="none"/><path d="M 247 464.12 L 250.5 471.12 L 243.5 471.12 Z" fill="none" stroke="rgb(0, 0, 0)" stroke-miterlimit="10" pointer-events="none"/><path d="M 159 547 L 159 521 L 335 521 L 335 547" fill="#fff2cc" stroke="#d6b656" stroke-miterlimit="10" pointer-events="none"/><path d="M 159 547 L 159 695 L 335 695 L 335 547" fill="none" stroke="#d6b656" stroke-miterlimit="10" pointer-events="none"/><path d="M 159 547 L 335 547" fill="none" stroke="#d6b656" stroke-miterlimit="10" pointer-events="none"/><g fill="rgb(0, 0, 0)" font-family="Helvetica" font-weight="bold" pointer-events="none" text-anchor="middle" font-size="12px"><text x="246.5" y="538.5">AbstractIngestor</text></g><g fill="rgb(0, 0, 0)" font-family="Helvetica" pointer-events="none" clip-path="url(#mx-clip-163-552-168-26-0)" font-size="12px"><text x="164.5" y="564.5">vocabularyMap: Map</text></g><g fill="rgb(0, 0, 0)" font-family="Helvetica" pointer-events="none" clip-path="url(#mx-clip-163-578-168-26-0)" font-size="12px"><text x="164.5" y="590.5">propertyMap: Map</text></g><g fill="rgb(0, 0, 0)" font-family="Helvetica" pointer-events="none" clip-path="url(#mx-clip-163-604-168-26-0)" font-size="12px"><text x="164.5" y="616.5">classMap: Map</text></g><g fill="rgb(0, 0, 0)" font-family="Helvetica" pointer-events="none" clip-path="url(#mx-clip-163-630-168-36-0)" font-size="12px"><text x="164.5" y="642.5">customMapper:</text><text x="164.5" y="656.5"> List&lt;IngestorCustomMapper&gt;</text></g><path d="M 159 665 L 335 665" fill="none" stroke="rgb(0, 0, 0)" stroke-miterlimit="10" pointer-events="none"/><g fill="rgb(0, 0, 0)" font-family="Helvetica" pointer-events="none" clip-path="url(#mx-clip-163-674-168-26-0)" font-size="12px"><text x="164.5" y="686.5">+ ingest(String): List&lt;Object&gt;</text></g><path d="M 163 429 L 163 403 L 331 403 L 331 429" fill="#dae8fc" stroke="#6c8ebf" stroke-miterlimit="10" pointer-events="none"/><path d="M 163 429 L 163 463 L 331 463 L 331 429" fill="none" stroke="#6c8ebf" stroke-miterlimit="10" pointer-events="none"/><path d="M 163 429 L 331 429" fill="none" stroke="#6c8ebf" stroke-miterlimit="10" pointer-events="none"/><g fill="rgb(0, 0, 0)" font-family="Helvetica" font-weight="bold" pointer-events="none" text-anchor="middle" font-size="12px"><text x="246.5" y="420.5">Ingestor</text></g><path d="M 163 433 L 331 433" fill="none" stroke="rgb(0, 0, 0)" stroke-miterlimit="10" pointer-events="none"/><g fill="rgb(0, 0, 0)" font-family="Helvetica" pointer-events="none" clip-path="url(#mx-clip-167-442-160-26-0)" font-size="12px"><text x="168.5" y="454.5">+ ingest(String): List&lt;Object&gt;</text></g><path d="M 335 643 L 505 643" fill="none" stroke="rgb(0, 0, 0)" stroke-miterlimit="10" pointer-events="none"/><path d="M 157 76 L 157 50 L 325 50 L 325 76" fill="#dae8fc" stroke="#6c8ebf" stroke-miterlimit="10" pointer-events="none"/><path d="M 157 76 L 157 110 L 325 110 L 325 76" fill="none" stroke="#6c8ebf" stroke-miterlimit="10" pointer-events="none"/><path d="M 157 76 L 325 76" fill="none" stroke="#6c8ebf" stroke-miterlimit="10" pointer-events="none"/><g fill="rgb(0, 0, 0)" font-family="Helvetica" font-weight="bold" pointer-events="none" text-anchor="middle" font-size="12px"><text x="240.5" y="67.5">IngestorBuilder</text></g><path d="M 157 80 L 325 80" fill="none" stroke="rgb(0, 0, 0)" stroke-miterlimit="10" pointer-events="none"/><g fill="rgb(0, 0, 0)" font-family="Helvetica" pointer-events="none" clip-path="url(#mx-clip-161-89-160-26-0)" font-size="12px"><text x="162.5" y="101.5">+ build() : Ingestor</text></g><path d="M 138 240 L 138 175 L 488.88 175" fill="none" stroke="rgb(0, 0, 0)" stroke-miterlimit="10" pointer-events="none"/><path d="M 495.88 175 L 488.88 178.5 L 488.88 171.5 Z" fill="none" stroke="rgb(0, 0, 0)" stroke-miterlimit="10" pointer-events="none"/><path d="M 138 240 L 138 175 L 241 175 L 241 118.12" fill="none" stroke="rgb(0, 0, 0)" stroke-miterlimit="10" pointer-events="none"/><path d="M 241 111.12 L 244.5 118.12 L 237.5 118.12 Z" fill="none" stroke="rgb(0, 0, 0)" stroke-miterlimit="10" pointer-events="none"/><path d="M 138 300 L 138 351.5 L 247 351.5 L 247 400.76" fill="none" stroke="rgb(0, 0, 0)" stroke-miterlimit="10" stroke-dasharray="3 3" pointer-events="none"/><path d="M 243.5 394.88 L 247 401.88 L 250.5 394.88" fill="none" stroke="rgb(0, 0, 0)" stroke-miterlimit="10" pointer-events="none"/><path d="M 46 266 L 46 240 L 230 240 L 230 266" fill="#d5e8d4" stroke="#82b366" stroke-miterlimit="10" pointer-events="none"/><path d="M 46 266 L 46 300 L 230 300 L 230 266" fill="none" stroke="#82b366" stroke-miterlimit="10" pointer-events="none"/><path d="M 46 266 L 230 266" fill="none" stroke="#82b366" stroke-miterlimit="10" pointer-events="none"/><g fill="rgb(0, 0, 0)" font-family="Helvetica" font-weight="bold" pointer-events="none" text-anchor="middle" font-size="12px"><text x="137.5" y="257.5">IngestorBuilderDCAT_EDM</text></g><path d="M 46 270 L 230 270" fill="none" stroke="rgb(0, 0, 0)" stroke-miterlimit="10" pointer-events="none"/><g fill="rgb(0, 0, 0)" font-family="Helvetica" pointer-events="none" clip-path="url(#mx-clip-50-279-176-26-0)" font-size="12px"><text x="51.5" y="291.5">+ build() : Ingestor</text></g><path d="M 345 240 L 345 175 L 488.88 175" fill="none" stroke="rgb(0, 0, 0)" stroke-miterlimit="10" pointer-events="none"/><path d="M 495.88 175 L 488.88 178.5 L 488.88 171.5 Z" fill="none" stroke="rgb(0, 0, 0)" stroke-miterlimit="10" pointer-events="none"/><path d="M 345 240 L 345 175 L 241 175 L 241 118.12" fill="none" stroke="rgb(0, 0, 0)" stroke-miterlimit="10" pointer-events="none"/><path d="M 241 111.12 L 244.5 118.12 L 237.5 118.12 Z" fill="none" stroke="rgb(0, 0, 0)" stroke-miterlimit="10" pointer-events="none"/><path d="M 345 300 L 345 351.5 L 247 351.5 L 247 400.76" fill="none" stroke="rgb(0, 0, 0)" stroke-miterlimit="10" stroke-dasharray="3 3" pointer-events="none"/><path d="M 243.5 394.88 L 247 401.88 L 250.5 394.88" fill="none" stroke="rgb(0, 0, 0)" stroke-miterlimit="10" pointer-events="none"/><path d="M 256 266 L 256 240 L 434 240 L 434 266" fill="#d5e8d4" stroke="#82b366" stroke-miterlimit="10" pointer-events="none"/><path d="M 256 266 L 256 300 L 434 300 L 434 266" fill="none" stroke="#82b366" stroke-miterlimit="10" pointer-events="none"/><path d="M 256 266 L 434 266" fill="none" stroke="#82b366" stroke-miterlimit="10" pointer-events="none"/><g fill="rgb(0, 0, 0)" font-family="Helvetica" font-weight="bold" pointer-events="none" text-anchor="middle" font-size="12px"><text x="344.5" y="257.5">IngestorBuilderDCAT2_EDM</text></g><path d="M 256 270 L 434 270" fill="none" stroke="rgb(0, 0, 0)" stroke-miterlimit="10" pointer-events="none"/><g fill="rgb(0, 0, 0)" font-family="Helvetica" pointer-events="none" clip-path="url(#mx-clip-260-279-170-26-0)" font-size="12px"><text x="261.5" y="291.5">+ build() : Ingestor</text></g><path d="M 497 171 L 497 145 L 716 145 L 716 171" fill="#fff2cc" stroke="#d6b656" stroke-miterlimit="10" pointer-events="none"/><path d="M 497 171 L 497 205 L 716 205 L 716 171" fill="none" stroke="#d6b656" stroke-miterlimit="10" pointer-events="none"/><path d="M 497 171 L 716 171" fill="none" stroke="#d6b656" stroke-miterlimit="10" pointer-events="none"/><g fill="rgb(0, 0, 0)" font-family="Helvetica" font-weight="bold" pointer-events="none" text-anchor="middle" font-size="12px"><text x="606" y="162.5">IngestorBuilderGenericDCAT_EDM</text></g><path d="M 497 175 L 716 175" fill="none" stroke="rgb(0, 0, 0)" stroke-miterlimit="10" pointer-events="none"/><g fill="rgb(0, 0, 0)" font-family="Helvetica" pointer-events="none" clip-path="url(#mx-clip-501-184-211-26-0)" font-size="12px"><text x="502.5" y="196.5">getSemanticDCAT() : Map</text></g></g></svg>